# xmcd CD database file
# Copyright (C) 1996 Ti Kan
#
# Track frame offsets:
#	150
#	14092
#	30535
#	42052
#	55947
#	78222
#	96657
#	108410
#	123432
#	138707
#	152990
#	188220
#	204927
#	224500
#	244017
#
# Disc length: 3585 seconds
#
# Revision: 1
# Processed by: cddbd v1.4b41PL1 Copyright (c) Steve Scherf et al.
# Submitted via: EasyCD 2.21 - (C) 1996 Greg Leichner
#
DISCID=d60dff0f
DTITLE=Butch Hancock Jimmie Dale Gilmore - Two Roads
DYEAR=1900
DGENRE=
TTITLE0=Hello Stranger
TTITLE1=Ramblin Man
TTITLE2=Her Lover Of The Hour
TTITLE3=Tonight I Think I'm Gonna Go Downtown
TTITLE4=Two Roads
TTITLE5=Wheels Of Fortune
TTITLE6=One Road More
TTITLE7=Blue Yodel #9
TTITLE8=Down By The Banks Of The Guadalupe
TTITLE9=Dallas
TTITLE10=Already Gone
TTITLE11=Special Treatment
TTITLE12=Howlin At Midnight
TTITLE13=Firewater (Seeks Its Own Level)
TTITLE14=West Texas Waltz
EXTD=
EXTT0=
EXTT1=
EXTT2=
EXTT3=
EXTT4=
EXTT5=
EXTT6=
EXTT7=
EXTT8=
EXTT9=
EXTT10=
EXTT11=
EXTT12=
EXTT13=
EXTT14=
PLAYORDER=
